# xmcd
#
# Track frame offsets:
#	150
#	13844
#	26324
#	38784
#	49931
#	65212
#	77861
#	88459
#	99509
#	111572
#	125286
#	137335
#	152411
#	163812
#	173127
#
# Disc length: 2427 seconds
#
# Revision: 1
# Processed by: cddbd v1.5.2PL0 Copyright (c) Steve Scherf et al.
# Submitted via: EZCDAudioConverter 7.0.6.1
#
DISCID=c809790f
DTITLE=Various Artist - 289_True Faith
DYEAR=2017
DGENRE=
TTITLE0=Bob Dylan - Slow Train (Rehearsal)
TTITLE1=Porter Wagoner - A Satisfied Mind
TTITLE2=Staple Singers - Will The Circle Be Unbroken
TTITLE3=Sister Rosetta Tharpe - Up Above My Head, I Hear Music In The Air
TTITLE4=Como Mamas - Out Of The Wilderness
TTITLE5=Swan Silvertones - Oh Mary Don't You Weep
TTITLE6=The Highway QC's - Working On The Building
TTITLE7=Mahalia Jackson - Keep Your Hand On The Plow
TTITLE8=Dorothy Love Coates - 99 And A Half Won't Do
TTITLE9=The Orioles - Crying In The Chapel
TTITLE10=Charlie Rich - Big Man
TTITLE11=B.B. King - Take My Hand Precious Lord
TTITLE12=Original Five Blind Boys Of Alabama - The Sermon
TTITLE13=Odetta - Go Tell It On The Mountain
TTITLE14=Johnny Cash - Lead Me Gently Home
EXTD=
EXTT0=
EXTT1=
EXTT2=
EXTT3=
EXTT4=
EXTT5=
EXTT6=
EXTT7=
EXTT8=
EXTT9=
EXTT10=
EXTT11=
EXTT12=
EXTT13=
EXTT14=
PLAYORDER=
